<mxfile host="65bd71144e">
    <diagram id="nfoU5zl-Lrdo-RMUOea-" name="Page-1">
        <mxGraphModel dx="650" dy="321" grid="1" gridSize="10" guides="1" tooltips="1" connect="1" arrows="1" fold="1" page="1" pageScale="1" pageWidth="827" pageHeight="1169" math="0" shadow="0">
            <root>
                <mxCell id="0"/>
                <mxCell id="1" parent="0"/>
                <mxCell id="52Nn8JB1zDlZzFZ0hI1m-19" value="Client Application" style="html=1;" parent="1" vertex="1">
                    <mxGeometry x="37" y="720" width="163" height="80" as="geometry"/>
                </mxCell>
                <mxCell id="52Nn8JB1zDlZzFZ0hI1m-20" value="Square" style="swimlane;fontStyle=1;align=center;verticalAlign=top;childLayout=stackLayout;horizontal=1;startSize=26;horizontalStack=0;resizeParent=1;resizeParentMax=0;resizeLast=0;collapsible=1;marginBottom=0;" parent="1" vertex="1">
                    <mxGeometry x="280" y="590" width="200" height="86" as="geometry"/>
                </mxCell>
                <mxCell id="52Nn8JB1zDlZzFZ0hI1m-21" value="- implementer: IShapelmplementer" style="text;strokeColor=none;fillColor=none;align=left;verticalAlign=top;spacingLeft=4;spacingRight=4;overflow=hidden;rotatable=0;points=[[0,0.5],[1,0.5]];portConstraint=eastwest;" parent="52Nn8JB1zDlZzFZ0hI1m-20" vertex="1">
                    <mxGeometry y="26" width="200" height="26" as="geometry"/>
                </mxCell>
                <mxCell id="52Nn8JB1zDlZzFZ0hI1m-22" value="" style="line;strokeWidth=1;fillColor=none;align=left;verticalAlign=middle;spacingTop=-1;spacingLeft=3;spacingRight=3;rotatable=0;labelPosition=right;points=[];portConstraint=eastwest;" parent="52Nn8JB1zDlZzFZ0hI1m-20" vertex="1">
                    <mxGeometry y="52" width="200" height="8" as="geometry"/>
                </mxCell>
                <mxCell id="52Nn8JB1zDlZzFZ0hI1m-23" value="+ draw()" style="text;strokeColor=none;fillColor=none;align=left;verticalAlign=top;spacingLeft=4;spacingRight=4;overflow=hidden;rotatable=0;points=[[0,0.5],[1,0.5]];portConstraint=eastwest;" parent="52Nn8JB1zDlZzFZ0hI1m-20" vertex="1">
                    <mxGeometry y="60" width="200" height="26" as="geometry"/>
                </mxCell>
                <mxCell id="52Nn8JB1zDlZzFZ0hI1m-24" value="IShape" style="swimlane;fontStyle=1;align=center;verticalAlign=top;childLayout=stackLayout;horizontal=1;startSize=26;horizontalStack=0;resizeParent=1;resizeParentMax=0;resizeLast=0;collapsible=1;marginBottom=0;" parent="1" vertex="1">
                    <mxGeometry x="280" y="720" width="200" height="60" as="geometry"/>
                </mxCell>
                <mxCell id="52Nn8JB1zDlZzFZ0hI1m-26" value="" style="line;strokeWidth=1;fillColor=none;align=left;verticalAlign=middle;spacingTop=-1;spacingLeft=3;spacingRight=3;rotatable=0;labelPosition=right;points=[];portConstraint=eastwest;" parent="52Nn8JB1zDlZzFZ0hI1m-24" vertex="1">
                    <mxGeometry y="26" width="200" height="8" as="geometry"/>
                </mxCell>
                <mxCell id="52Nn8JB1zDlZzFZ0hI1m-27" value="+ draw()" style="text;strokeColor=none;fillColor=none;align=left;verticalAlign=top;spacingLeft=4;spacingRight=4;overflow=hidden;rotatable=0;points=[[0,0.5],[1,0.5]];portConstraint=eastwest;" parent="52Nn8JB1zDlZzFZ0hI1m-24" vertex="1">
                    <mxGeometry y="34" width="200" height="26" as="geometry"/>
                </mxCell>
                <mxCell id="3" style="edgeStyle=orthogonalEdgeStyle;rounded=0;orthogonalLoop=1;jettySize=auto;html=1;startArrow=none;startFill=0;endArrow=none;endFill=0;endSize=12;" edge="1" parent="1" source="52Nn8JB1zDlZzFZ0hI1m-28" target="52Nn8JB1zDlZzFZ0hI1m-23">
                    <mxGeometry relative="1" as="geometry">
                        <Array as="points">
                            <mxPoint x="510" y="880"/>
                            <mxPoint x="510" y="650"/>
                        </Array>
                    </mxGeometry>
                </mxCell>
                <mxCell id="52Nn8JB1zDlZzFZ0hI1m-28" value="Circle" style="swimlane;fontStyle=1;align=center;verticalAlign=top;childLayout=stackLayout;horizontal=1;startSize=26;horizontalStack=0;resizeParent=1;resizeParentMax=0;resizeLast=0;collapsible=1;marginBottom=0;" parent="1" vertex="1">
                    <mxGeometry x="280" y="840" width="200" height="86" as="geometry"/>
                </mxCell>
                <mxCell id="52Nn8JB1zDlZzFZ0hI1m-29" value="- implementer: IShapelmplementer" style="text;strokeColor=none;fillColor=none;align=left;verticalAlign=top;spacingLeft=4;spacingRight=4;overflow=hidden;rotatable=0;points=[[0,0.5],[1,0.5]];portConstraint=eastwest;" parent="52Nn8JB1zDlZzFZ0hI1m-28" vertex="1">
                    <mxGeometry y="26" width="200" height="26" as="geometry"/>
                </mxCell>
                <mxCell id="52Nn8JB1zDlZzFZ0hI1m-30" value="" style="line;strokeWidth=1;fillColor=none;align=left;verticalAlign=middle;spacingTop=-1;spacingLeft=3;spacingRight=3;rotatable=0;labelPosition=right;points=[];portConstraint=eastwest;" parent="52Nn8JB1zDlZzFZ0hI1m-28" vertex="1">
                    <mxGeometry y="52" width="200" height="8" as="geometry"/>
                </mxCell>
                <mxCell id="52Nn8JB1zDlZzFZ0hI1m-31" value="+ draw()" style="text;strokeColor=none;fillColor=none;align=left;verticalAlign=top;spacingLeft=4;spacingRight=4;overflow=hidden;rotatable=0;points=[[0,0.5],[1,0.5]];portConstraint=eastwest;" parent="52Nn8JB1zDlZzFZ0hI1m-28" vertex="1">
                    <mxGeometry y="60" width="200" height="26" as="geometry"/>
                </mxCell>
                <mxCell id="52Nn8JB1zDlZzFZ0hI1m-32" value="SquareImplementer" style="swimlane;fontStyle=1;align=center;verticalAlign=top;childLayout=stackLayout;horizontal=1;startSize=26;horizontalStack=0;resizeParent=1;resizeParentMax=0;resizeLast=0;collapsible=1;marginBottom=0;" parent="1" vertex="1">
                    <mxGeometry x="560" y="600" width="160" height="60" as="geometry"/>
                </mxCell>
                <mxCell id="52Nn8JB1zDlZzFZ0hI1m-34" value="" style="line;strokeWidth=1;fillColor=none;align=left;verticalAlign=middle;spacingTop=-1;spacingLeft=3;spacingRight=3;rotatable=0;labelPosition=right;points=[];portConstraint=eastwest;" parent="52Nn8JB1zDlZzFZ0hI1m-32" vertex="1">
                    <mxGeometry y="26" width="160" height="8" as="geometry"/>
                </mxCell>
                <mxCell id="52Nn8JB1zDlZzFZ0hI1m-35" value="+ drawImplementation()" style="text;strokeColor=none;fillColor=none;align=left;verticalAlign=top;spacingLeft=4;spacingRight=4;overflow=hidden;rotatable=0;points=[[0,0.5],[1,0.5]];portConstraint=eastwest;" parent="52Nn8JB1zDlZzFZ0hI1m-32" vertex="1">
                    <mxGeometry y="34" width="160" height="26" as="geometry"/>
                </mxCell>
                <mxCell id="4" style="edgeStyle=orthogonalEdgeStyle;rounded=0;orthogonalLoop=1;jettySize=auto;html=1;startArrow=open;startFill=0;endArrow=diamond;endFill=0;endSize=12;startSize=12;" edge="1" parent="1" source="52Nn8JB1zDlZzFZ0hI1m-36">
                    <mxGeometry relative="1" as="geometry">
                        <mxPoint x="510" y="750" as="targetPoint"/>
                    </mxGeometry>
                </mxCell>
                <mxCell id="52Nn8JB1zDlZzFZ0hI1m-36" value="IShapeImplementer" style="swimlane;fontStyle=1;align=center;verticalAlign=top;childLayout=stackLayout;horizontal=1;startSize=26;horizontalStack=0;resizeParent=1;resizeParentMax=0;resizeLast=0;collapsible=1;marginBottom=0;" parent="1" vertex="1">
                    <mxGeometry x="560" y="720" width="160" height="60" as="geometry"/>
                </mxCell>
                <mxCell id="52Nn8JB1zDlZzFZ0hI1m-37" value="" style="line;strokeWidth=1;fillColor=none;align=left;verticalAlign=middle;spacingTop=-1;spacingLeft=3;spacingRight=3;rotatable=0;labelPosition=right;points=[];portConstraint=eastwest;" parent="52Nn8JB1zDlZzFZ0hI1m-36" vertex="1">
                    <mxGeometry y="26" width="160" height="8" as="geometry"/>
                </mxCell>
                <mxCell id="52Nn8JB1zDlZzFZ0hI1m-38" value="+ drawImplementation()" style="text;strokeColor=none;fillColor=none;align=left;verticalAlign=top;spacingLeft=4;spacingRight=4;overflow=hidden;rotatable=0;points=[[0,0.5],[1,0.5]];portConstraint=eastwest;" parent="52Nn8JB1zDlZzFZ0hI1m-36" vertex="1">
                    <mxGeometry y="34" width="160" height="26" as="geometry"/>
                </mxCell>
                <mxCell id="52Nn8JB1zDlZzFZ0hI1m-39" value="CircleImplementer" style="swimlane;fontStyle=1;align=center;verticalAlign=top;childLayout=stackLayout;horizontal=1;startSize=26;horizontalStack=0;resizeParent=1;resizeParentMax=0;resizeLast=0;collapsible=1;marginBottom=0;" parent="1" vertex="1">
                    <mxGeometry x="560" y="853" width="160" height="60" as="geometry"/>
                </mxCell>
                <mxCell id="52Nn8JB1zDlZzFZ0hI1m-40" value="" style="line;strokeWidth=1;fillColor=none;align=left;verticalAlign=middle;spacingTop=-1;spacingLeft=3;spacingRight=3;rotatable=0;labelPosition=right;points=[];portConstraint=eastwest;" parent="52Nn8JB1zDlZzFZ0hI1m-39" vertex="1">
                    <mxGeometry y="26" width="160" height="8" as="geometry"/>
                </mxCell>
                <mxCell id="52Nn8JB1zDlZzFZ0hI1m-41" value="+ drawImplementation()" style="text;strokeColor=none;fillColor=none;align=left;verticalAlign=top;spacingLeft=4;spacingRight=4;overflow=hidden;rotatable=0;points=[[0,0.5],[1,0.5]];portConstraint=eastwest;" parent="52Nn8JB1zDlZzFZ0hI1m-39" vertex="1">
                    <mxGeometry y="34" width="160" height="26" as="geometry"/>
                </mxCell>
                <mxCell id="52Nn8JB1zDlZzFZ0hI1m-43" value="" style="html=1;verticalAlign=bottom;startArrow=none;startFill=0;endArrow=none;startSize=12;endFill=0;" parent="1" edge="1">
                    <mxGeometry width="60" relative="1" as="geometry">
                        <mxPoint x="200" y="759.5" as="sourcePoint"/>
                        <mxPoint x="240" y="760" as="targetPoint"/>
                    </mxGeometry>
                </mxCell>
                <mxCell id="52Nn8JB1zDlZzFZ0hI1m-45" value="" style="html=1;verticalAlign=bottom;startArrow=none;startFill=0;endArrow=open;startSize=6;endSize=10;entryX=0;entryY=0.5;entryDx=0;entryDy=0;" parent="1" target="52Nn8JB1zDlZzFZ0hI1m-23" edge="1">
                    <mxGeometry width="80" relative="1" as="geometry">
                        <mxPoint x="240" y="663" as="sourcePoint"/>
                        <mxPoint x="280" y="656" as="targetPoint"/>
                    </mxGeometry>
                </mxCell>
                <mxCell id="52Nn8JB1zDlZzFZ0hI1m-46" value="" style="html=1;verticalAlign=bottom;startArrow=none;startFill=0;endArrow=open;startSize=6;endSize=10;entryX=0.005;entryY=0.269;entryDx=0;entryDy=0;entryPerimeter=0;" parent="1" edge="1">
                    <mxGeometry width="80" relative="1" as="geometry">
                        <mxPoint x="240" y="910" as="sourcePoint"/>
                        <mxPoint x="281" y="909.9939999999999" as="targetPoint"/>
                    </mxGeometry>
                </mxCell>
                <mxCell id="52Nn8JB1zDlZzFZ0hI1m-47" value="" style="line;strokeWidth=1;html=1;direction=south;" parent="1" vertex="1">
                    <mxGeometry x="235" y="663" width="10" height="247" as="geometry"/>
                </mxCell>
                <mxCell id="52Nn8JB1zDlZzFZ0hI1m-48" value="" style="html=1;verticalAlign=bottom;startArrow=none;startFill=0;endArrow=block;startSize=12;exitX=0.465;exitY=1;exitDx=0;exitDy=0;exitPerimeter=0;dashed=1;endFill=0;endSize=12;" parent="1" edge="1">
                    <mxGeometry width="60" relative="1" as="geometry">
                        <mxPoint x="381" y="676" as="sourcePoint"/>
                        <mxPoint x="380" y="719" as="targetPoint"/>
                    </mxGeometry>
                </mxCell>
                <mxCell id="52Nn8JB1zDlZzFZ0hI1m-49" value="" style="html=1;verticalAlign=bottom;startArrow=none;startFill=0;endArrow=block;startSize=12;exitX=0.5;exitY=0;exitDx=0;exitDy=0;dashed=1;endFill=0;endSize=12;entryX=0.505;entryY=1.038;entryDx=0;entryDy=0;entryPerimeter=0;" parent="1" source="52Nn8JB1zDlZzFZ0hI1m-28" target="52Nn8JB1zDlZzFZ0hI1m-27" edge="1">
                    <mxGeometry width="60" relative="1" as="geometry">
                        <mxPoint x="383" y="686" as="sourcePoint"/>
                        <mxPoint x="382" y="790" as="targetPoint"/>
                    </mxGeometry>
                </mxCell>
                <mxCell id="52Nn8JB1zDlZzFZ0hI1m-50" value="" style="html=1;verticalAlign=bottom;startArrow=none;startFill=0;endArrow=block;startSize=12;exitX=0.488;exitY=1.154;exitDx=0;exitDy=0;exitPerimeter=0;dashed=1;endFill=0;endSize=12;" parent="1" source="52Nn8JB1zDlZzFZ0hI1m-35" target="52Nn8JB1zDlZzFZ0hI1m-36" edge="1">
                    <mxGeometry width="60" relative="1" as="geometry">
                        <mxPoint x="393" y="696" as="sourcePoint"/>
                        <mxPoint x="392" y="739" as="targetPoint"/>
                    </mxGeometry>
                </mxCell>
                <mxCell id="52Nn8JB1zDlZzFZ0hI1m-51" value="" style="html=1;verticalAlign=bottom;startArrow=none;startFill=0;endArrow=block;startSize=12;exitX=0.5;exitY=0;exitDx=0;exitDy=0;dashed=1;endFill=0;endSize=12;entryX=0.488;entryY=1.038;entryDx=0;entryDy=0;entryPerimeter=0;" parent="1" source="52Nn8JB1zDlZzFZ0hI1m-39" target="52Nn8JB1zDlZzFZ0hI1m-38" edge="1">
                    <mxGeometry width="60" relative="1" as="geometry">
                        <mxPoint x="403" y="706" as="sourcePoint"/>
                        <mxPoint x="402" y="749" as="targetPoint"/>
                    </mxGeometry>
                </mxCell>
            </root>
        </mxGraphModel>
    </diagram>
</mxfile>